<svg xmlns="http://www.w3.org/2000/svg" width="26" height="26" viewBox="0 0 26 26">
    <path fill="#E7205B" fill-rule="nonzero" d="M21.4 22.8H4.3c-.8 0-1.4-.6-1.4-1.4V4.3c0-.8.6-1.4 1.4-1.4h7.1c.8 0 1.4-.6 1.4-1.4 0-.8-.6-1.5-1.4-1.5H2.8C1.3 0 0 1.3 0 2.8v19.9c0 1.6 1.3 2.8 2.8 2.8h19.9c1.6 0 2.8-1.3 2.8-2.8v-8.5c0-.8-.6-1.4-1.4-1.4-.8 0-1.4.6-1.4 1.4v7.1c.1.8-.6 1.5-1.3 1.5zM15.7 1.4c0 .8.6 1.4 1.4 1.4h3.7l-13 13c-.6.6-.6 1.5 0 2 .6.6 1.5.6 2 0l13-13v3.7c0 .8.6 1.4 1.4 1.4.8 0 1.4-.6 1.4-1.4V0h-8.5c-.8 0-1.4.6-1.4 1.4z"/>
</svg>
