<svg xmlns="http://www.w3.org/2000/svg" width="26" height="26" viewBox="0 0 26 26">
    <path fill="#E7205B" fill-rule="evenodd" d="M22.6 0H3C1.3 0 0 1.3 0 3v19.7c0 1.6 1.3 3 3 3h13.8c.8 0 1.4-.6 1.4-1.4 0-.8-.6-1.4-1.4-1.4h-.7v-3.5c0-.8-.6-1.4-1.4-1.4-.8 0-1.4.6-1.4 1.4v3.5H3c-.1 0-.2-.1-.2-.2v-7.9h11.9c.8 0 1.4-.6 1.4-1.4 0-.8-.6-1.4-1.4-1.4H2.8V3c0-.1.1-.2.2-.2h8.7v4.6c0 .8.6 1.4 1.4 1.4.8 0 1.4-.6 1.4-1.4V2.8h8.1c.1 0 .2.1.2.2v8.9h-3.4c-.8 0-1.4.6-1.4 1.4 0 .8.6 1.4 1.4 1.4h3.4v7.9c0 .1-.1.2-.2.2h-1.1c-.8 0-1.4.6-1.4 1.4 0 .8.6 1.4 1.4 1.4h1.1c1.6 0 3-1.3 3-3V3c0-1.7-1.3-3-3-3z"/>
</svg>
