<?xml version="1.0" encoding="UTF-8"?>
<svg width="25px" height="25px" viewBox="0 0 25 25" version="1.1" xmlns="http://www.w3.org/2000/svg" xmlns:xlink="http://www.w3.org/1999/xlink">
    <!-- Generator: Sketch 53 (72520) - https://sketchapp.com -->
    <title>Group 8</title>
    <desc>Created with Sketch.</desc>
    <defs>
        <polygon id="path-1" points="0 0.418081395 24.5720238 0.418081395 24.5720238 24.4186047 0 24.4186047"></polygon>
    </defs>
    <g id="Page-1" stroke="none" stroke-width="1" fill="none" fill-rule="evenodd">
        <g id="HOME-Desktop" transform="translate(-363.000000, -3495.000000)">
            <g id="Group-8" transform="translate(363.000000, 3495.000000)">
                <path d="M16.21625,9.6644186 C15.718631,9.6644186 15.3144643,9.27023256 15.3144643,8.78476744 C15.3144643,8.29988372 15.718631,7.90453488 16.2156548,7.90453488 C16.7114881,7.90453488 17.1168452,8.29988372 17.1174405,8.78476744 C17.1174405,9.27023256 16.7120833,9.6644186 16.21625,9.6644186 M12.2858929,16.3330233 C10.1876786,16.3330233 8.47875,14.6644186 8.47875,12.6144186 C8.47875,10.5644186 10.1870833,8.89581395 12.2852976,8.89581395 C14.3858929,8.89581395 16.0930357,10.5638372 16.0930357,12.6144186 C16.0930357,14.6638372 14.3852976,16.3330233 12.2858929,16.3330233 M15.9483929,6.96674419 L8.6239881,6.96732558 C7.45434524,6.96732558 6.50434524,7.89581395 6.50494048,9.03825581 L6.50494048,16.1911628 C6.50494048,17.3330233 7.45494048,18.2626744 8.62517857,18.2626744 L15.9489881,18.2626744 C17.1180357,18.262093 18.0692262,17.3324419 18.0692262,16.19 L18.068631,9.03767442 C18.068631,7.89523256 17.1168452,6.96674419 15.9483929,6.96674419" id="Fill-1" fill="#333333"></path>
                <path d="M12.2855952,10.4678488 C11.074881,10.4678488 10.0885714,11.4300581 10.0885714,12.6143605 C10.0885714,13.7986628 11.074881,14.7620349 12.2861905,14.7620349 C13.4986905,14.7620349 14.485,13.7986628 14.485,12.6143605 C14.485,11.4312209 13.4980952,10.4678488 12.2855952,10.4678488" id="Fill-3" fill="#333333"></path>
                <g id="Group-7" transform="translate(0.000000, 0.163256)">
                    <mask id="mask-2" fill="white">
                        <use xlink:href="#path-1"></use>
                    </mask>
                    <g id="Clip-6"></g>
                    <path d="M19.6772619,16.0268023 C19.6772619,18.036686 18.0046429,19.6698256 15.9486905,19.6698256 L8.62547619,19.670407 C6.56952381,19.670407 4.89571429,18.0372674 4.89571429,16.0273837 L4.89511905,8.87505814 C4.89511905,6.8675 6.56833333,5.23261628 8.62428571,5.23203488 L15.9480952,5.23203488 C18.0040476,5.23145349 19.6766667,6.86633721 19.6766667,8.87447674 L19.6772619,16.0268023 Z M12.285,0.418081395 C5.49988095,0.418662791 -0.000714285714,5.7919186 -0.000119047619,12.4186628 C0.000476190476,19.0465698 5.50166667,24.4192442 12.2867857,24.4186628 C19.0719048,24.4180814 24.5730952,19.0448256 24.5725,12.4175 C24.5719048,5.79017442 19.070119,0.4175 12.285,0.418081395 L12.285,0.418081395 Z" id="Fill-5" fill="#333333" mask="url(#mask-2)"></path>
                </g>
            </g>
        </g>
    </g>
</svg>