<?xml version="1.0" encoding="UTF-8"?>
<svg width="25px" height="25px" viewBox="0 0 25 25" version="1.1" xmlns="http://www.w3.org/2000/svg" xmlns:xlink="http://www.w3.org/1999/xlink">
    <!-- Generator: Sketch 53.1 (72631) - https://sketchapp.com -->
    <title>Group</title>
    <desc>Created with Sketch.</desc>
    <defs>
        <polygon id="path-1" points="0 0.380714286 24.5725 0.380714286 24.5725 24.9527381 0 24.9527381"></polygon>
    </defs>
    <g id="Page-1" stroke="none" stroke-width="1" fill="none" fill-rule="evenodd">
        <g id="HOME-Desktop" transform="translate(-363.000000, -3495.000000)">
            <g id="Group" transform="translate(363.000000, 3495.000000)">
                <path d="M16.21625,9.68005952 C15.718631,9.68005952 15.3144643,9.2764881 15.3144643,8.77946429 C15.3144643,8.28303571 15.718631,7.87827381 16.2156548,7.87827381 C16.7114881,7.87827381 17.1168452,8.28303571 17.1174405,8.77946429 C17.1174405,9.2764881 16.7120833,9.68005952 16.21625,9.68005952 M12.2858929,16.5074405 C10.1876786,16.5074405 8.47875,14.7991071 8.47875,12.7002976 C8.47875,10.6014881 10.1870833,8.89315476 12.2852976,8.89315476 C14.3858929,8.89315476 16.0930357,10.6008929 16.0930357,12.7002976 C16.0930357,14.7985119 14.3852976,16.5074405 12.2858929,16.5074405 M15.9483929,6.91815476 L8.6239881,6.91875 C7.45434524,6.91875 6.50434524,7.86934524 6.50494048,9.0389881 L6.50494048,16.3622024 C6.50494048,17.53125 7.45494048,18.4830357 8.62517857,18.4830357 L15.9489881,18.4830357 C17.1180357,18.4824405 18.0692262,17.5306548 18.0692262,16.3610119 L18.068631,9.03839286 C18.068631,7.86875 17.1168452,6.91815476 15.9483929,6.91815476" id="Fill-10" fill="#333333"></path>
                <path d="M10.0885714,12.7001786 C10.0885714,13.9126786 11.074881,14.8989881 12.2861905,14.8989881 C13.4986905,14.8989881 14.485,13.9126786 14.485,12.7001786 C14.485,11.488869 13.4980952,10.5025595 12.2855952,10.5025595 C11.074881,10.5025595 10.0885714,11.4876786 10.0885714,12.7001786 Z" id="Fill-12" fill="#333333"></path>
                <mask id="mask-2" fill="white">
                    <use xlink:href="#path-1"></use>
                </mask>
                <g id="Clip-15"></g>
                <path d="M19.6772619,16.3610714 C19.6772619,18.4188095 18.0046429,20.0908333 15.9486905,20.0908333 L8.62547619,20.0914286 C6.56952381,20.0914286 4.89571429,18.4194048 4.89571429,16.3616667 L4.89511905,9.03904762 C4.89511905,6.98369048 6.56833333,5.30988095 8.62428571,5.30928571 L15.9480952,5.30928571 C18.0040476,5.30869048 19.6766667,6.9825 19.6766667,9.03845238 L19.6772619,16.3610714 Z M12.285,0.380714286 C5.49988095,0.381309524 -0.000714285714,5.8825 -0.000119047619,12.6670238 C0.000476190476,19.4527381 5.50166667,24.9533333 12.2867857,24.9527381 C19.0719048,24.9521429 24.5730952,19.4509524 24.5725,12.6658333 C24.5719048,5.88071429 19.070119,0.380119048 12.285,0.380714286 L12.285,0.380714286 Z" id="Fill-14" fill="#333333" mask="url(#mask-2)"></path>
            </g>
        </g>
    </g>
</svg>