<svg xmlns="http://www.w3.org/2000/svg" width="42" height="42" viewBox="0 0 42 42">
    <g fill="none" fill-rule="evenodd">
        <path fill="#818181" d="M21.106 41.138C9.836 41.138.699 32.003.698 20.733.698 9.463 9.834.327 21.104.327 32.373.326 41.51 9.462 41.51 20.73c0 11.27-9.136 20.407-20.405 20.407z"/>
        <path fill="#FFF" d="M10.836 30.787h4.875v-14.67h-4.876l.001 14.67zm2.47-21.742c-1.67 0-2.76 1.096-2.76 2.535 0 1.41 1.058 2.534 2.695 2.534h.031c1.701 0 2.76-1.126 2.76-2.535-.033-1.438-1.059-2.534-2.727-2.534zm19.99 13.327v8.414H28.42v-7.849c0-1.97-.704-3.317-2.472-3.317-1.345 0-2.146.907-2.5 1.785-.13.312-.16.748-.16 1.188v8.193l-4.88.001s.065-13.295 0-14.67h4.878v2.078c-.009.016-.022.032-.032.048h.032v-.048c.65-.998 1.805-2.424 4.397-2.424 3.21 0 5.613 2.097 5.614 6.601z"/>
    </g>
</svg>
