<svg xmlns="http://www.w3.org/2000/svg" width="26" height="26" viewBox="0 0 26 26">
    <g fill="#E7205B" fill-rule="evenodd">
        <path d="M1.4 16.9H10c.8 0 1.4-.7 1.4-1.5V3.5c0-.8-.6-1.5-1.4-1.5H1.4C.6 2 0 2.7 0 3.5v11.9c0 .8.6 1.5 1.4 1.5zM1.4 25.6H10c.8 0 1.4-.4 1.4-1v-3.9c0-.5-.6-1-1.4-1H1.4c-.8 0-1.4.4-1.4 1v3.9c0 .6.6 1 1.4 1zM15.7 25.6h8.5c.8 0 1.4-.6 1.4-1.3V14.2c0-.7-.6-1.3-1.4-1.3h-8.5c-.8 0-1.4.6-1.4 1.3v10.2c-.1.7.6 1.2 1.4 1.2zM14.2 1.7v6.6c0 .9.6 1.7 1.4 1.7h8.5c.8 0 1.4-.7 1.4-1.7V1.7C25.6.7 25 0 24.2 0h-8.5c-.8 0-1.5.7-1.5 1.7z"/>
    </g>
</svg>
